<svg version="1.1" xmlns="http://www.w3.org/2000/svg" xmlns:xlink="http://www.w3.org/1999/xlink" width="82.88538" height="78.2" viewBox="0,0,82.88538,78.2"><defs><radialGradient cx="255.63538" cy="187.83332" r="29.5" gradientUnits="userSpaceOnUse" id="color-1"><stop offset="0" stop-color="#000000" stop-opacity="0"/><stop offset="1" stop-color="#000000" stop-opacity="0"/></radialGradient><radialGradient cx="240" cy="180" r="48.75" gradientUnits="userSpaceOnUse" id="color-2"><stop offset="0" stop-color="#000000" stop-opacity="0"/><stop offset="1" stop-color="#000000" stop-opacity="0"/></radialGradient></defs><g transform="translate(-201.75,-140.9)"><g data-paper-data="{&quot;isPaintingLayer&quot;:true}" fill-rule="nonzero" stroke-linecap="butt" stroke-linejoin="miter" stroke-miterlimit="10" stroke-dasharray="" stroke-dashoffset="0" style="mix-blend-mode: normal"><path d="M284.63538,187.83332c0,16.2924 -12.98374,29.5 -29,29.5c-16.01626,0 -29,-13.2076 -29,-29.5c0,-16.2924 12.98374,-29.5 29,-29.5c16.01626,0 29,13.2076 29,29.5z" fill="url(#color-1)" stroke="#ffffff" stroke-width="0"/><path d="M277.5,180c0,21.18012 -16.78932,38.35 -37.5,38.35c-20.71068,0 -37.5,-17.16988 -37.5,-38.35c0,-21.18012 16.78932,-38.35 37.5,-38.35c20.71068,0 37.5,17.16988 37.5,38.35z" fill="url(#color-2)" stroke="#000000" stroke-width="1.5"/></g></g></svg>