<svg version="1.1" xmlns="http://www.w3.org/2000/svg" xmlns:xlink="http://www.w3.org/1999/xlink" width="38.3395" height="52.82703" viewBox="0,0,38.3395,52.82703"><defs><linearGradient x1="225.66208" y1="146.40074" x2="225.66208" y2="175.18951" gradientUnits="userSpaceOnUse" id="color-1"><stop offset="0" stop-color="#ffffff"/><stop offset="1" stop-color="#9a098f"/></linearGradient><linearGradient x1="242.43079" y1="146.39276" x2="242.43079" y2="175.18155" gradientUnits="userSpaceOnUse" id="color-2"><stop offset="0" stop-color="#ffffff"/><stop offset="1" stop-color="#9a098f"/></linearGradient><linearGradient x1="225.40372" y1="170.42302" x2="225.40372" y2="199.21182" gradientUnits="userSpaceOnUse" id="color-3"><stop offset="0" stop-color="#9a098f"/><stop offset="1" stop-color="#ffffff"/></linearGradient><linearGradient x1="242.17243" y1="170.431" x2="242.17243" y2="199.21979" gradientUnits="userSpaceOnUse" id="color-4"><stop offset="0" stop-color="#9a098f"/><stop offset="1" stop-color="#ffffff"/></linearGradient></defs><g transform="translate(-214.74751,-146.39276)"><g data-paper-data="{&quot;isPaintingLayer&quot;:true}" fill-rule="nonzero" stroke="none" stroke-width="0.5" stroke-linecap="butt" stroke-linejoin="miter" stroke-miterlimit="10" stroke-dasharray="" stroke-dashoffset="0" style="mix-blend-mode: normal"><g><path d="M215.19292,173.54292c-0.85436,-2.34948 1.49513,-3.20384 1.49513,-3.20384l2.83768,-1.03023c2.16022,-0.6072 3.37351,-0.67168 5.08401,-1.91469c5.90606,-4.29194 6.70856,-11.8695 6.70856,-18.49342c0,0 0,-2.5 2.5,-2.5c2.5,0 2.5,2.5 2.5,2.5c0,8.27545 -1.51933,17.32382 -8.81613,22.57189c-2.38564,1.71582 -3.54871,1.75599 -6.43431,2.59247l-2.67108,0.97295c0,0 -2.34948,0.85436 -3.20384,-1.49513z" fill="url(#color-1)"/><path d="M249.69612,175.03008l-2.67109,-0.97295c-2.8856,-0.83649 -4.04867,-0.87665 -6.43431,-2.59248c-7.2968,-5.24806 -8.81614,-14.29644 -8.81614,-22.57189c0,0 0,-2.5 2.5,-2.5c2.5,0 2.5,2.5 2.5,2.5c0,6.62393 0.8025,14.20148 6.70856,18.49343c1.7105,1.24302 2.92378,1.30749 5.08401,1.91469l2.83768,1.03024c0,0 2.34949,0.85436 1.49513,3.20384c-0.85436,2.34948 -3.20384,1.49513 -3.20384,1.49513z" data-paper-data="{&quot;index&quot;:null}" fill="url(#color-2)"/></g><g data-paper-data="{&quot;index&quot;:null}"><path d="M218.1384,170.5745l2.67109,0.97295c2.8856,0.83649 4.04867,0.87665 6.43431,2.59248c7.2968,5.24806 8.81614,14.29644 8.81614,22.57189c0,0 0,2.5 -2.5,2.5c-2.5,0 -2.5,-2.5 -2.5,-2.5c0,-6.62393 -0.8025,-14.20148 -6.70856,-18.49343c-1.7105,-1.24302 -2.92378,-1.30749 -5.08401,-1.91469l-2.83768,-1.03024c0,0 -2.34949,-0.85436 -1.49513,-3.20384c0.85436,-2.34948 3.20384,-1.49513 3.20384,-1.49513z" fill="url(#color-3)"/><path d="M252.6416,172.07759c0.85436,2.34948 -1.49513,3.20384 -1.49513,3.20384l-2.83768,1.03024c-2.16022,0.6072 -3.37351,0.67167 -5.08401,1.91469c-5.90606,4.29194 -6.70856,11.8695 -6.70856,18.49343c0,0 0,2.5 -2.5,2.5c-2.5,0 -2.5,-2.5 -2.5,-2.5c0,-8.27545 1.51934,-17.32382 8.81614,-22.57189c2.38564,-1.71582 3.54871,-1.75599 6.43431,-2.59248l2.67109,-0.97295c0,0 2.34948,-0.85436 3.20384,1.49513z" data-paper-data="{&quot;index&quot;:null}" fill="url(#color-4)"/></g></g></g></svg>